#!OML:ASF F:\VICON\USERDATA\Patient Classification 1\PLAYGROUND\JustinFriday\JustinFriday.ASF
:FULLY-SPECIFIED
:DEGREES
2872
root 10.9164 9.3522 -7.70081 -39.3505 5.03529 -6.41247
lowerback 38.1505 1.00999 -1.71059
upperback 6.91849 0.854889 1.51247
thorax -11.1139 0.448636 2.16584
lowerneck 10.5691 -3.97187 -10.017
upperneck 7.41949 -6.71945 11.2806
head 1.18406 -3.62066 5.16905
rclavicle 2.45499e-014 1.11319e-014
rhumerus 63.0844 -20.5235 -56.6629
rradius 67.8373
rwrist 3.779
rhand -18.8269 -25.7157
rfingers 7.12502
rthumb 7.47224 -55.5637
lclavicle 2.45499e-014 1.11319e-014
lhumerus 71.1675 7.63983 52.2782
lradius 62.5759
lwrist -7.69312
lhand -15.1399 -1.48885
lfingers 7.12502
lthumb 11.0298 28.2014
rfemur -52.8801 -26.8795 20.7077
rtibia 139.821
rfoot -11.068 -1.77627
rtoes 17.3633
lfemur -59.9945 11.4112 -13.855
ltibia 99.3211
lfoot -3.00272 -12.3018
ltoes 8.89844
2873
root 10.9161 9.2263 -7.52559 -39.8375 4.66159 -6.80128
lowerback 38.069 0.992013 -1.56754
upperback 6.7768 0.912732 1.68929
thorax -11.253 0.472876 2.25803
lowerneck 10.676 -3.92857 -10.2582
upperneck 7.64369 -6.71628 11.3549
head 1.24263 -3.62823 5.23355
rclavicle 6.95746e-015 -9.54166e-015
rhumerus 63.4125 -20.4261 -56.3529
rradius 66.7546
rwrist 3.57449
rhand -18.7366 -25.3368
rfingers 7.12502
rthumb 7.55943 -55.1818
lclavicle 6.95746e-015 -9.54166e-015
lhumerus 71.2716 7.73058 52.0301
lradius 62.0323
lwrist -7.32648
lhand -14.4668 -1.39858
lfingers 7.12502
lthumb 11.679 28.2559
rfemur -54.4235 -25.7014 22.5162
rtibia 139.382
rfoot -11.7738 -2.39742
rtoes 17.9493
lfemur -60.5944 12.1939 -13.069
ltibia 101.337
lfoot -3.67658 -12.8488
ltoes 8.14413
2874
root 10.9224 9.12208 -7.35323 -40.5117 4.36717 -7.01889
lowerback 38.106 1.01191 -1.47995
upperback 6.72634 0.988918 1.81545
thorax -11.33 0.505849 2.31609
lowerneck 10.8811 -3.78445 -10.6822
upperneck 7.76558 -6.6068 11.6358
head 1.25396 -3.59102 5.39712
rclavicle -1.12313e-014 -2.3059e-014
rhumerus 63.6072 -20.5143 -55.5585
rradius 65.6137
rwrist 2.90247
rhand -19.4546 -25.1159
rfingers 7.12502
rthumb 6.86637 -54.9845
lclavicle -1.12313e-014 -2.3059e-014
lhumerus 71.449 7.80303 52.0186
lradius 61.4557
lwrist -7.53761
lhand -13.9351 -1.79004
lfingers 7.12502
lthumb 12.1917 27.8347
rfemur -55.3589 -24.4636 23.7471
rtibia 138.534
rfoot -12.4547 -2.86872
rtoes 18.3224
lfemur -60.6833 12.7524 -12.3764
ltibia 103.155
lfoot -4.08212 -13.2331
ltoes 9.26195
2875
root 10.9318 9.02202 -7.17964 -41.2479 4.67016 -6.78819
lowerback 38.2031 1.06478 -1.95263
upperback 6.75967 0.850321 1.70545
thorax -11.3206 0.45413 2.50397
lowerneck 11.3142 -3.82447 -10.5398
upperneck 7.36164 -6.64496 11.4088
head 1.06258 -3.62121 5.31862
rclavicle 5.76476e-015 9.54166e-015
rhumerus 63.932 -20.8713 -54.6546
rradius 64.4949
rwrist 1.92214
rhand -20.1327 -25.3626
rfingers 7.12502
rthumb 6.2117 -55.2516
lclavicle 5.76476e-015 9.54166e-015
lhumerus 71.8374 7.8171 51.7344
lradius 60.6945
lwrist -7.20474
lhand -14.1339 -1.9116
lfingers 7.12502
lthumb 12 27.7244
rfemur -55.839 -23.996 23.5959
rtibia 137.507
rfoot -13.2374 -2.92045
rtoes 17.6431
lfemur -60.5644 12.8343 -12.4582
ltibia 104.888
lfoot -4.53923 -13.336
ltoes 10.0774
2876
root 10.9347 8.917 -7.00107 -41.8615 4.89214 -6.73408
lowerback 38.3082 1.12139 -2.17744
upperback 6.75785 0.819163 1.61823
thorax -11.3569 0.446527 2.54054
lowerneck 11.275 -4.20488 -10.0898
upperneck 7.2178 -7.07469 10.8954
head 1.04759 -3.82334 5.08475
rclavicle 1.32192e-014 -2.46493e-014
rhumerus 60.9892 -23.8235 -50.5006
rradius 66.0543
rwrist -2.82161
rhand -20.0707 -26.3057
rfingers 7.12502
rthumb 6.27159 -56.1928
lclavicle 1.32192e-014 -2.46493e-014
lhumerus 72.3904 7.53075 51.4892
lradius 60.0054
lwrist -6.64779
lhand -14.4042 -1.74617
lfingers 7.12502
lthumb 11.7393 27.9049
rfemur -56.439 -23.1391 23.8098
rtibia 136.289
rfoot -13.9771 -3.10312
rtoes 16.6448
lfemur -60.6428 13.1437 -12.4057
ltibia 106.668
lfoot -5.10246 -13.2813
ltoes 10.286
2877
root 10.9343 8.8176 -6.82145 -42.4152 4.71137 -7.11747
lowerback 38.186 1.13788 -1.97383
upperback 6.76938 0.948347 1.78713
thorax -11.3117 0.500317 2.56189
lowerneck 13.6283 -3.96253 -10.8433
upperneck 5.06817 -6.92408 12.1986
head 0.0905007 -3.85315 5.71791
rclavicle 8.44835e-015 1.66979e-014
rhumerus 63.7298 -21.6001 -53.4212
rradius 63.3801
rwrist 0.895955
rhand -20.2766 -25.707
rfingers 7.12502
rthumb 6.07277 -55.5999
lclavicle 8.44835e-015 1.66979e-014
lhumerus 72.8347 7.07296 51.8232
lradius 59.4883
lwrist -6.64912
lhand -14.1031 -1.75892
lfingers 7.12502
lthumb 12.0297 27.8753
rfemur -57.0513 -21.7241 24.9389
rtibia 134.766
rfoot -14.6311 -3.54186
rtoes 14.7042
lfemur -60.7734 13.7875 -11.7366
ltibia 108.389
lfoot -6.11217 -13.6791
ltoes 9.21955
2878
root 10.9356 8.71383 -6.64157 -42.9644 4.50221 -7.33766
lowerback 38.0644 1.25712 -1.98692
upperback 6.82001 1.12914 2.02496
thorax -11.2302 0.582397 2.75014
lowerneck 12.5505 -4.39988 -10.2824
upperneck 6.27289 -7.40307 10.9785
head 0.61734 -4.03126 5.1961
rclavicle -3.24019e-014 -2.38542e-014
rhumerus 63.9388 -21.9036 -52.3917
rradius 62.5179
rwrist 0.252251
rhand -20.7822 -24.9728
rfingers 7.12502
rthumb 5.58461 -54.8792
lclavicle -3.24019e-014 -2.38542e-014
lhumerus 73.5238 7.94279 51.1572
lradius 58.8797
lwrist -5.26222
lhand -13.4025 -1.77816
lfingers 7.12502
lthumb 12.7052 27.8153
rfemur -57.7566 -20.2649 25.8953
rtibia 133.13
rfoot -15.0805 -3.84261
rtoes 12.6284
lfemur -60.8643 14.6081 -11.1485
ltibia 110.104
lfoot -7.40264 -14.1736
ltoes 7.70005
2879
root 10.9399 8.60876 -6.46357 -43.5797 4.11317 -7.44942
lowerback 38.3134 1.31195 -1.90204
upperback 6.78781 1.22963 2.04462
thorax -11.3591 0.626428 2.68264
lowerneck 11.7277 -4.58948 -10.1101
upperneck 7.08488 -7.61641 10.655
head 0.992157 -4.10813 5.03004
rclavicle 2.98177e-016 -8.74653e-015
rhumerus 64.1964 -21.9932 -52.0596
rradius 61.7591
rwrist -0.139522
rhand -21.2206 -24.0922
rfingers 7.12502
rthumb 5.16138 -54.0093
lclavicle 2.98177e-016 -8.74653e-015
lhumerus 73.7008 8.42759 50.4085
lradius 58.5472
lwrist -4.91561
lhand -13.2357 -1.64638
lfingers 7.12502
lthumb 12.866 27.9371
rfemur -58.3271 -18.4988 26.8459
rtibia 131.374
rfoot -15.1714 -4.47131
rtoes 11.2044
lfemur -60.7669 15.7135 -10.3577
ltibia 111.882
lfoot -8.88215 -14.689
ltoes 6.76673
2880
root 10.9487 8.5143 -6.28713 -44.2089 3.8184 -7.56429
lowerback 38.588 1.21916 -1.62869
upperback 6.76824 1.19187 1.86368
thorax -11.4636 0.601828 2.35732
lowerneck 11.8844 -4.53578 -10.2396
upperneck 6.89229 -7.58362 11.2051
head 0.926705 -4.10393 5.23016
rclavicle 2.98177e-015 -8.74653e-015
rhumerus 64.2584 -22.2692 -51.9675
rradius 61.3281
rwrist -0.538643
rhand -20.5163 -24.471
rfingers 7.12502
rthumb 5.84137 -54.3704
lclavicle 2.98177e-015 -8.74653e-015
lhumerus 73.9384 9.74129 48.2267
lradius 58.2168
lwrist -3.11695
lhand -13.1582 -1.06817
lfingers 7.12502
lthumb 12.9407 28.5106
rfemur -58.6184 -17.1601 27.4523
rtibia 129.596
rfoot -15.3441 -4.88065
rtoes 11.1807
lfemur -60.4625 16.5473 -9.5174
ltibia 113.595
lfoot -10.1758 -15.2376
ltoes 7.24097
2881
root 10.9569 8.42293 -6.10789 -44.8385 3.6713 -7.68356
lowerback 38.4375 1.41531 -1.91841
upperback 7.05523 1.37605 2.2443
thorax -11.1147 0.687237 2.84375
lowerneck 13.0075 -4.35249 -10.9598
upperneck 5.37416 -7.43689 11.9797
head 0.337003 -4.09044 5.64708
rclavicle 7.15625e-015 -1.51076e-014
rhumerus 64.3191 -23.0264 -50.6803
rradius 61.2862
rwrist -1.26674
rhand -18.7937 -25.7154
rfingers 7.12502
rthumb 7.50429 -55.5623
lclavicle 7.15625e-015 -1.51076e-014
lhumerus 74.7389 9.27162 49.427
lradius 57.3335
lwrist -4.54629
lhand -13.2658 -1.21896
lfingers 7.12502
lthumb 12.8369 28.3663
rfemur -58.7794 -16.2739 27.7088
rtibia 127.892
rfoot -15.7845 -4.80837
rtoes 11.8621
lfemur -60.1358 17.1169 -8.77812
ltibia 115.263
lfoot -11.3207 -15.8535
ltoes 7.60933
2882
root 10.9611 8.33677 -5.93199 -45.4636 3.61807 -7.40265
lowerback 38.4512 1.68577 -2.4128
upperback 7.21397 1.53356 2.36013
thorax -10.9631 0.766966 3.16219
lowerneck 13.7299 -4.19641 -11.5136
upperneck 4.43227 -7.3128 12.671
head -0.02837 -4.07345 5.99314
rclavicle -9.54166e-015 2.38542e-015
rhumerus 64.3961 -23.5653 -49.6788
rradius 61.0042
rwrist -1.78699
rhand -17.6945 -26.4758
rfingers 7.12502
rthumb 8.56513 -56.2821
lclavicle -9.54166e-015 2.38542e-015
lhumerus 75.3543 9.44378 49.4972
lradius 56.5199
lwrist -4.78146
lhand -13.4552 -1.35969
lfingers 7.12502
lthumb 12.6544 28.237
rfemur -58.9191 -15.1566 27.556
rtibia 126.212
rfoot -15.9763 -4.86608
rtoes 11.3235
lfemur -59.6244 17.8027 -8.39686
ltibia 116.797
lfoot -12.3432 -16.4077
ltoes 7.84697
2883
root 10.9728 8.25992 -5.75636 -45.913 3.79025 -7.25797
lowerback 38.4942 1.62812 -2.50823
upperback 7.01431 1.38989 2.12162
thorax -11.1862 0.708966 3.01515
lowerneck 14.2253 -4.13105 -11.4313
upperneck 4.30184 -7.25225 12.8554
head -0.149655 -4.06285 6.05777
rclavicle 2.94201e-014 2.14687e-014
rhumerus 64.1219 -23.5881 -49.1878
rradius 60.4517
rwrist -2.28395
rhand -18.248 -26.5131
rfingers 7.12502
rthumb 8.03102 -56.3405
lclavicle 2.94201e-014 2.14687e-014
lhumerus 75.5757 9.68308 48.2962
lradius 55.7553
lwrist -3.89612
lhand -13.7186 -1.16333
lfingers 7.12502
lthumb 12.4004 28.4489
rfemur -59.202 -14.4383 27.308
rtibia 124.592
rfoot -15.9933 -4.93353
rtoes 10.0134
lfemur -59.3403 18.1762 -8.19612
ltibia 118.242
lfoot -13.2626 -16.8065
ltoes 8.43675
2884
root 10.9875 8.18951 -5.57666 -46.2676 4.0335 -7.63773
lowerback 38.4591 1.24822 -1.96681
upperback 6.83591 1.09804 1.88324
thorax -11.3422 0.56689 2.59688
lowerneck 13.9957 -4.20653 -11.2691
upperneck 4.71475 -7.34431 12.8637
head 0.0124056 -4.09906 6.02092
rclavicle -1.53064e-014 2.38542e-015
rhumerus 64.1329 -23.6653 -49.2116
rradius 59.779
rwrist -2.183
rhand -18.5028 -26.078
rfingers 7.12502
rthumb 7.78502 -55.9147
lclavicle -1.53064e-014 2.38542e-015
lhumerus 75.9373 9.51511 47.6033
lradius 55.0997
lwrist -3.54091
lhand -13.8019 -0.969228
lfingers 7.12502
lthumb 12.3201 28.6478
rfemur -59.5263 -14.3078 27.358
rtibia 123.046
rfoot -16.1191 -4.88489
rtoes 7.91882
lfemur -59.3666 18.2638 -7.70221
ltibia 119.733
lfoot -14.5156 -17.0977
ltoes 8.24419
